#!OML:ASF F:\VICON\USERDATA\Patient Classification 1\PLAYGROUND\JustinFriday\JustinFriday.ASF
:FULLY-SPECIFIED
:DEGREES
1915
root 35.701 17.7923 4.27466 -4.0567 -53.4131 9.71551
lowerback 13.2968 0.991259 -3.62217
upperback 2.1222 0.801166 0.91747
thorax -5.28147 0.445672 2.87524
lowerneck 1.86324 -14.3268 -11.5557
upperneck -9.75617 -18.8248 14.9033
head -0.630492 -9.60811 6.06718
rclavicle 2.08724e-014 -8.74653e-015
rhumerus -31.4774 -14.668 -75.998
rradius 28.0802
rwrist -2.36132
rhand -14.2588 -24.5112
rfingers 7.12502
rthumb 11.8796 -54.1541
lclavicle 2.08724e-014 -8.74653e-015
lhumerus -35.9853 9.75566 79.0671
lradius 53.6115
lwrist 4.86832
lhand -22.1931 -15.0609
lfingers 7.12502
lthumb 4.22234 14.877
rfemur -34.729 -2.82182 19.4412
rtibia 24.9648
rfoot -5.62792 -15.5548
rtoes 33.8769
lfemur 21.0245 7.04961 -21.3716
ltibia 10.8219
lfoot -2.53344 6.86374
ltoes -8.03436
1916
root 35.5431 17.8064 4.36553 -4.02042 -53.8869 9.53573
lowerback 13.2226 0.91564 -3.44441
upperback 2.15028 0.726964 0.889991
thorax -5.20265 0.403603 2.75896
lowerneck 1.18919 -14.2995 -11.112
upperneck -9.42855 -18.7459 14.6193
head -0.509974 -9.54925 5.86414
rclavicle 5.96354e-015 0
rhumerus -30.922 -14.1728 -76.8434
rradius 27.7798
rwrist -4.07906
rhand -12.7699 -26.2713
rfingers 7.12502
rthumb 13.315 -55.8259
lclavicle 5.96354e-015 0
lhumerus -36.2728 10.6665 78.7285
lradius 51.9952
lwrist 5.34714
lhand -24.1646 -15.3188
lfingers 7.12502
lthumb 2.31839 14.6483
rfemur -34.4243 -3.04749 19.9798
rtibia 25.5607
rfoot -4.39994 -15.0169
rtoes 32.2076
lfemur 19.6894 7.13542 -20.9868
ltibia 14.2851
lfoot -2.53735 6.94306
ltoes -1.56909
1917
root 35.3849 17.8239 4.45803 -4.24238 -54.3901 9.58754
lowerback 13.135 0.930575 -3.31878
upperback 2.22346 0.762683 0.820773
thorax -5.07724 0.414513 2.60904
lowerneck 0.779533 -14.3364 -11.0405
upperneck -9.22693 -18.7733 14.616
head -0.38957 -9.55069 5.80755
rclavicle -3.69739e-014 -1.35174e-014
rhumerus -30.4626 -14.5674 -77.0215
rradius 26.7928
rwrist -4.05196
rhand -12.6867 -23.6938
rfingers 7.12502
rthumb 13.3952 -53.2432
lclavicle -3.69739e-014 -1.35174e-014
lhumerus -36.3487 11.3156 78.5803
lradius 50.117
lwrist 5.95406
lhand -24.7586 -15.0505
lfingers 7.12502
lthumb 1.74474 14.9221
rfemur -33.9594 -3.55508 20.456
rtibia 25.9866
rfoot -3.44382 -14.2032
rtoes 29.1076
lfemur 18.2586 7.22515 -20.7698
ltibia 17.9737
lfoot -2.83788 7.12869
ltoes 2.41158
1918
root 35.2274 17.8388 4.54444 -3.79596 -55.0041 8.73002
lowerback 13.3163 0.928885 -2.82588
upperback 2.09999 0.834731 1.00615
thorax -5.30862 0.448444 2.51127
lowerneck 0.993625 -14.2923 -11.4883
upperneck -9.17142 -18.7412 14.8446
head -0.344168 -9.53344 5.94499
rclavicle 3.53837e-014 -1.66979e-014
rhumerus -30.4504 -13.9294 -77.3074
rradius 26.5921
rwrist -4.45416
rhand -12.8617 -23.3087
rfingers 7.12502
rthumb 13.2265 -52.8691
lclavicle 3.53837e-014 -1.66979e-014
lhumerus -36.8956 11.9089 78.4853
lradius 48.2322
lwrist 6.598
lhand -25.9805 -15.5177
lfingers 7.12502
lthumb 0.564594 14.4613
rfemur -33.299 -3.2705 21.2739
rtibia 26.3083
rfoot -2.76024 -14.0593
rtoes 25.7711
lfemur 16.8597 7.35138 -19.9268
ltibia 21.6915
lfoot -1.81853 6.69821
ltoes 9.62799
1919
root 35.0729 17.8481 4.62633 -2.88303 -55.5632 7.29102
lowerback 13.5682 0.858406 -2.0866
upperback 1.96867 0.85776 1.2708
thorax -5.58147 0.452992 2.36587
lowerneck 0.659848 -14.2515 -11.3595
upperneck -8.5774 -18.7035 14.4047
head -0.182693 -9.48605 5.75169
rclavicle 3.16068e-014 -2.38542e-015
rhumerus -30.4987 -13.3801 -77.5178
rradius 26.5329
rwrist -4.33976
rhand -12.3997 -24.1743
rfingers 7.12502
rthumb 13.6718 -53.7052
lclavicle 3.16068e-014 -2.38542e-015
lhumerus -37.2931 12.319 78.3092
lradius 46.0982
lwrist 7.14447
lhand -26.8909 -16.3132
lfingers 7.12502
lthumb -0.314737 13.6663
rfemur -32.5684 -2.91992 22.4108
rtibia 26.6014
rfoot -2.02355 -13.7588
rtoes 23.1406
lfemur 15.5374 7.69657 -18.6282
ltibia 25.2783
lfoot 0.603024 5.51094
ltoes -13.1883
1920
root 34.9152 17.8649 4.71294 -2.03577 -56.0764 5.99766
lowerback 13.6788 0.742046 -1.4309
upperback 1.90274 0.809212 1.45652
thorax -5.70325 0.418891 2.19868
lowerneck -0.307929 -14.2342 -10.4203
upperneck -7.6516 -18.6658 13.2567
head 0.0257752 -9.42126 5.1941
rclavicle -1.78906e-015 1.51076e-014
rhumerus -30.2926 -13.5794 -77.5889
rradius 26.1105
rwrist -3.51095
rhand -11.4744 -24.6503
rfingers 7.12502
rthumb 14.5635 -54.1191
lclavicle -1.78906e-015 1.51076e-014
lhumerus -37.4381 12.7289 78.0238
lradius 43.9192
lwrist 7.5146
lhand -27.1281 -15.6809
lfingers 7.12502
lthumb -0.54382 14.2981
rfemur -31.8272 -2.96148 23.4655
rtibia 26.8212
rfoot -1.91731 -12.8731
rtoes 22.9127
lfemur 14.1765 7.96389 -17.4719
ltibia 28.7387
lfoot 2.70246 4.40728
ltoes -14.5468
